<svg xmlns="http://www.w3.org/2000/svg" viewBox="0 0 560 180" width="560" height="180">
  <defs>
    <linearGradient id="blinkGradient" x1="0" y1="0" x2="0" y2="1">
      <stop offset="0%"  stop-color="#5FAC9D"/>
      <stop offset="100%" stop-color="#2F6F5F"/>
    </linearGradient>
  </defs>

  <rect x="0" y="0" width="560" height="180" fill="#0F172A"/>

  <!-- icon (mark), left -->
  <g>
    <g stroke="#3B8272" stroke-width="11" stroke-linecap="round">
      <line x1="8" y1="58" x2="44" y2="68"/>
      <line x1="4" y1="89" x2="26" y2="90"/>
      <line x1="8" y1="122" x2="44" y2="112"/>
    </g>
    <path fill="#3B8272"
          d="M78,40
             C81,72 84,87 108,90
             C84,93 81,108 78,140
             C75,108 72,93 48,90
             C72,87 75,72 78,40 Z"/>
    <path fill="none" stroke="url(#blinkGradient)" stroke-width="30"
          stroke-linecap="round" stroke-linejoin="round"
          d="M58,20 L128,20
             C166,20 182,36 182,58
             C182,76 172,84 152,90
             C172,96 182,106 182,124
             C182,146 166,162 128,162
             L58,162"/>
  </g>

  <!-- wordmark, white for dark background -->
  <text x="220" y="128" font-family="Poppins, 'Century Gothic', Futura, system-ui, sans-serif"
        font-weight="600" font-size="108" fill="#FFFFFF" letter-spacing="-2">Blink</text>
</svg>
